<svg width="38" height="38" viewBox="0 0 38 38" fill="none" xmlns="http://www.w3.org/2000/svg">
<path d="M29.1836 18.836L20.1273 9.78443L19.5203 9.1774C19.382 9.04 19.1949 8.96289 19 8.96289C18.805 8.96289 18.618 9.04 18.4797 9.1774L8.81639 18.836C8.67467 18.9772 8.56266 19.1453 8.48698 19.3305C8.41131 19.5156 8.37349 19.7141 8.37577 19.9141C8.38514 20.7391 9.07186 21.3977 9.89686 21.3977H10.893V29.0313H27.107V21.3977H28.1242C28.525 21.3977 28.9023 21.2407 29.1859 20.9571C29.3256 20.8179 29.4362 20.6524 29.5114 20.4701C29.5867 20.2879 29.625 20.0925 29.6242 19.8954C29.6242 19.4969 29.4672 19.1196 29.1836 18.836V18.836ZM20.3125 27.3438H17.6875V22.5626H20.3125V27.3438ZM25.4195 19.7102V27.3438H21.8125V22.0001C21.8125 21.4821 21.393 21.0626 20.875 21.0626H17.125C16.607 21.0626 16.1875 21.4821 16.1875 22.0001V27.3438H12.5805V19.7102H10.3305L19.0023 11.0454L19.5437 11.5868L27.6719 19.7102H25.4195Z" fill="white"/>
</svg>
