<svg width="38" height="38" viewBox="0 0 38 38" fill="none" xmlns="http://www.w3.org/2000/svg">
<path d="M18.8523 22.4922C18.8699 22.5146 18.8923 22.5327 18.9179 22.5452C18.9435 22.5577 18.9715 22.5641 19 22.5641C19.0285 22.5641 19.0565 22.5577 19.0821 22.5452C19.1077 22.5327 19.1301 22.5146 19.1477 22.4922L21.7727 19.1711C21.8687 19.0492 21.782 18.8687 21.625 18.8687H19.8883V10.9375C19.8883 10.8344 19.8039 10.75 19.7008 10.75H18.2945C18.1914 10.75 18.107 10.8344 18.107 10.9375V18.8664H16.375C16.218 18.8664 16.1313 19.0469 16.2273 19.1688L18.8523 22.4922ZM27.5781 21.6719H26.1719C26.0687 21.6719 25.9844 21.7562 25.9844 21.8594V25.4688H12.0156V21.8594C12.0156 21.7562 11.9313 21.6719 11.8281 21.6719H10.4219C10.3187 21.6719 10.2344 21.7562 10.2344 21.8594V26.5C10.2344 26.9148 10.5695 27.25 10.9844 27.25H27.0156C27.4305 27.25 27.7656 26.9148 27.7656 26.5V21.8594C27.7656 21.7562 27.6813 21.6719 27.5781 21.6719Z" fill="white"/>
</svg>
