<svg width="38" height="38" viewBox="0 0 38 38" fill="none" xmlns="http://www.w3.org/2000/svg">
<path d="M21.25 13.375H13V20.5H16.75V24.625H25V17.5H21.25V13.375ZM14.5 19V14.875H19.75V19H14.5ZM23.5 19V23.125H18.25V20.5H21.25V19H23.5Z" fill="white"/>
<path d="M25.75 9.25H12.25V7.75H7.75V12.25H9.25V25.75H7.75V30.25H12.25V28.75H25.75V30.25H30.25V25.75H28.75V12.25H30.25V7.75H25.75V9.25ZM9.25 9.25H10.75V10.75H9.25V9.25ZM10.75 28.75H9.25V27.25H10.75V28.75ZM28.75 28.75H27.25V27.25H28.75V28.75ZM27.25 9.25H28.75V10.75H27.25V9.25ZM27.25 25.75H25.75V27.25H12.25V25.75H10.75V12.25H12.25V10.75H25.75V12.25H27.25V25.75Z" fill="white"/>
</svg>
