<svg width="38" height="38" viewBox="0 0 38 38" fill="none" xmlns="http://www.w3.org/2000/svg">
<path d="M22.29 23.29L20 25.59V14C20 13.7348 19.8946 13.4804 19.7071 13.2929C19.5196 13.1054 19.2652 13 19 13C18.7348 13 18.4804 13.1054 18.2929 13.2929C18.1054 13.4804 18 13.7348 18 14V25.59L15.71 23.29C15.5217 23.1017 15.2663 22.9959 15 22.9959C14.7337 22.9959 14.4783 23.1017 14.29 23.29C14.1017 23.4783 13.9959 23.7337 13.9959 24C13.9959 24.2663 14.1017 24.5217 14.29 24.71L18.29 28.71C18.3851 28.801 18.4972 28.8724 18.62 28.92C18.7397 28.9729 18.8691 29.0002 19 29.0002C19.1309 29.0002 19.2603 28.9729 19.38 28.92C19.5027 28.8724 19.6149 28.801 19.71 28.71L23.71 24.71C23.8983 24.5217 24.0041 24.2663 24.0041 24C24.0041 23.7337 23.8983 23.4783 23.71 23.29C23.6168 23.1968 23.5061 23.1228 23.3842 23.0723C23.2624 23.0219 23.1319 22.9959 23 22.9959C22.7337 22.9959 22.4783 23.1017 22.29 23.29V23.29ZM26 9H12C11.7348 9 11.4804 9.10536 11.2929 9.29289C11.1054 9.48043 11 9.73478 11 10C11 10.2652 11.1054 10.5196 11.2929 10.7071C11.4804 10.8946 11.7348 11 12 11H26C26.2652 11 26.5196 10.8946 26.7071 10.7071C26.8946 10.5196 27 10.2652 27 10C27 9.73478 26.8946 9.48043 26.7071 9.29289C26.5196 9.10536 26.2652 9 26 9V9Z" fill="white"/>
</svg>
