<svg width="38" height="38" viewBox="0 0 38 38" fill="none" xmlns="http://www.w3.org/2000/svg">
<path d="M24.1603 11.6334L26.3666 13.8386L24.1603 11.6334ZM25.5791 9.69069L19.6135 15.6563C19.3052 15.9641 19.095 16.3563 19.0093 16.7834L18.4583 19.5417L21.2166 18.9896C21.6437 18.9042 22.0353 18.6949 22.3437 18.3865L28.3093 12.4209C28.4886 12.2416 28.6308 12.0288 28.7278 11.7946C28.8248 11.5604 28.8747 11.3093 28.8747 11.0558C28.8747 10.8023 28.8248 10.5512 28.7278 10.317C28.6308 10.0828 28.4886 9.86996 28.3093 9.69069C28.13 9.51142 27.9172 9.36922 27.683 9.2722C27.4488 9.17518 27.1977 9.12524 26.9442 9.12524C26.6907 9.12524 26.4396 9.17518 26.2054 9.2722C25.9712 9.36922 25.7584 9.51142 25.5791 9.69069V9.69069Z" stroke="white" stroke-width="3.33333" stroke-linecap="round" stroke-linejoin="round"/>
<path d="M26.7916 21.625V24.75C26.7916 25.3026 26.5721 25.8325 26.1814 26.2232C25.7907 26.6139 25.2608 26.8334 24.7083 26.8334H13.25C12.6974 26.8334 12.1675 26.6139 11.7768 26.2232C11.3861 25.8325 11.1666 25.3026 11.1666 24.75V13.2917C11.1666 12.7392 11.3861 12.2093 11.7768 11.8186C12.1675 11.4279 12.6974 11.2084 13.25 11.2084H16.375" stroke="white" stroke-width="3.33333" stroke-linecap="round" stroke-linejoin="round"/>
</svg>
