<svg width="38" height="38" viewBox="0 0 38 38" fill="none" xmlns="http://www.w3.org/2000/svg">
<path d="M9.08337 9.125V15.375H12.1563L14.2396 21.625H13.25V27.875H19.5V23.0937L25.1355 17.4583H29.9167V11.2083H23.6667V15.9687L18.0313 21.625H16.4375L14.3542 15.375H15.3334V9.125H9.08337ZM11.1667 11.2083H13.25V13.2917H11.1667V11.2083ZM25.75 13.2917H27.8334V15.375H25.75V13.2917ZM29.0313 19.5417C28.875 19.5417 28.7396 19.5937 28.625 19.7083L27.573 20.7708L29.7292 22.9271L30.7917 21.875C31.0105 21.6562 31.0105 21.2812 30.7917 21.0625L29.4375 19.7083C29.3843 19.6549 29.321 19.6127 29.2512 19.5841C29.1815 19.5554 29.1067 19.541 29.0313 19.5417V19.5417ZM26.948 21.375L20.5417 27.7812V29.9583H22.7188L29.1146 23.5417L26.948 21.375V21.375ZM15.3334 23.7083H17.4167V25.7917H15.3334V23.7083Z" fill="white"/>
</svg>
