<svg width="38" height="38" viewBox="0 0 38 38" fill="none" xmlns="http://www.w3.org/2000/svg">
<path fill-rule="evenodd" clip-rule="evenodd" d="M20.2265 26.2609C20.2265 28.0328 18.8735 29.4703 17.2044 29.4703H11.4559C10.6549 29.4699 9.88683 29.1316 9.32044 28.5298C8.75406 27.928 8.43569 27.112 8.4353 26.2609V20.1515C8.4353 18.3812 9.78824 16.9437 11.4559 16.9437H17.2044C18.8735 16.9437 20.2265 18.3812 20.2265 20.1515V26.2609Z" fill="white"/>
<path fill-rule="evenodd" clip-rule="evenodd" d="M27.8838 10.6001L29.6058 13.8126C29.8201 13.813 30.0258 13.7231 30.1777 13.5625C30.3296 13.402 30.4154 13.184 30.4161 12.9563L30.4441 7.01257C30.4439 6.89959 30.4227 6.78775 30.3818 6.68346C30.3409 6.57917 30.281 6.48448 30.2056 6.40481C30.1302 6.32513 30.0408 6.26203 29.9424 6.21913C29.844 6.17622 29.7387 6.15435 29.6323 6.15476L24.0955 6.1282C23.9892 6.12737 23.8837 6.1489 23.7851 6.19154C23.6866 6.23419 23.597 6.2971 23.5214 6.37667C23.4458 6.45624 23.3858 6.5509 23.3447 6.65521C23.3037 6.75951 23.2825 6.8714 23.2823 6.98445L26.2441 8.86882L20.6323 14.7969C20.5244 14.9091 20.4388 15.043 20.3804 15.1909C20.3221 15.3387 20.2922 15.4975 20.2926 15.6579C20.2926 15.9735 20.4044 16.2829 20.6323 16.5219C20.8509 16.7518 21.1461 16.8807 21.4536 16.8807C21.7612 16.8807 22.0563 16.7518 22.275 16.5219L27.8838 10.6001Z" fill="white"/>
<path fill-rule="evenodd" clip-rule="evenodd" d="M29.1166 16.9703V27.2578C29.117 27.8538 28.8949 28.4255 28.499 28.8476C28.1031 29.2697 27.5657 29.5077 27.0049 29.5094H10.4916C9.93076 29.5077 9.39342 29.2697 8.99751 28.8476C8.6016 28.4255 8.37947 27.8538 8.37987 27.2578V9.74377C8.37987 8.50315 9.3284 7.49377 10.4916 7.49377H20.2034V6.04065H10.0225C9.22293 6.04272 8.45674 6.38155 7.89191 6.98286C7.32707 7.58417 7.00966 8.39891 7.00928 9.24846V27.736C7.00928 29.5032 8.36222 30.9438 10.0225 30.9438H27.4946C28.2945 30.9421 29.0613 30.6035 29.6267 30.0022C30.192 29.4009 30.51 28.5859 30.5108 27.736V16.9703H29.1166V16.9703Z" fill="white"/>
</svg>
