<svg width="38" height="38" viewBox="0 0 38 38" fill="none" xmlns="http://www.w3.org/2000/svg">
<path d="M20 9.57288C22.2171 9.57654 24.3625 10.358 26.0625 11.7812V8.44788H27.7708V15.2187H21V13.5104H25.4375C24.2639 12.3637 22.7574 11.6179 21.134 11.3799C19.5105 11.1419 17.8534 11.4239 16.4001 12.1855C14.9467 12.9471 13.7717 14.1491 13.0434 15.6195C12.3151 17.0898 12.071 18.7529 12.3459 20.3705C12.6208 21.9881 13.4006 23.4772 14.5737 24.6244C15.7468 25.7716 17.253 26.518 18.8763 26.7567C20.4997 26.9955 22.1569 26.7142 23.6106 25.9533C25.0643 25.1923 26.2398 23.9908 26.9688 22.5208L28.4896 23.2812C27.7376 24.7964 26.5943 26.083 25.178 27.0079C23.7617 27.9328 22.1239 28.4623 20.4342 28.5416C18.7446 28.6209 17.0644 28.2471 15.5677 27.459C14.071 26.6708 12.8122 25.4969 11.9216 24.0588C11.031 22.6207 10.541 20.9707 10.5022 19.2796C10.4635 17.5885 10.8775 15.9178 11.7014 14.4405C12.5253 12.9632 13.7291 11.7329 15.1881 10.8771C16.6472 10.0212 18.3085 9.57097 20 9.57288V9.57288Z" fill="white"/>
</svg>
