<svg width="38" height="38" viewBox="0 0 38 38" fill="none" xmlns="http://www.w3.org/2000/svg">
<path d="M30.71 12.29L25.71 7.29002C25.6165 7.19734 25.5057 7.12401 25.3839 7.07425C25.2621 7.02448 25.1316 6.99926 25 7.00002H9C8.46957 7.00002 7.96086 7.21073 7.58579 7.5858C7.21071 7.96088 7 8.46958 7 9.00002V29C7 29.5304 7.21071 30.0391 7.58579 30.4142C7.96086 30.7893 8.46957 31 9 31H29C29.5304 31 30.0391 30.7893 30.4142 30.4142C30.7893 30.0391 31 29.5304 31 29V13C31.0007 12.8684 30.9755 12.7379 30.9258 12.6161C30.876 12.4943 30.8027 12.3835 30.71 12.29ZM15 9.00002H23V13H15V9.00002ZM23 29H15V21H23V29ZM25 29V21C25 20.4696 24.7893 19.9609 24.4142 19.5858C24.0391 19.2107 23.5304 19 23 19H15C14.4696 19 13.9609 19.2107 13.5858 19.5858C13.2107 19.9609 13 20.4696 13 21V29H9V9.00002H13V13C13 13.5304 13.2107 14.0392 13.5858 14.4142C13.9609 14.7893 14.4696 15 15 15H23C23.5304 15 24.0391 14.7893 24.4142 14.4142C24.7893 14.0392 25 13.5304 25 13V9.41001L29 13.41V29H25Z" fill="white"/>
</svg>
