<svg width="38" height="38" viewBox="0 0 38 38" fill="none" xmlns="http://www.w3.org/2000/svg">
<path d="M25.75 14.875H22.375V12.25H23.875V7.75H19.375V9.25H12.25V7.75H7.75V12.25H9.25V19.375H7.75V23.875H12.25V22.375H15.625V25.75H14.125V30.25H18.625V28.75H25.75V30.25H30.25V25.75H28.75V17.875H30.25V13.375H25.75V14.875ZM20.875 9.25H22.375V10.75H20.875V9.25ZM22.375 20.875V22.375H20.875V20.875H22.375ZM9.25 9.25H10.75V10.75H9.25V9.25ZM10.75 22.375H9.25V20.875H10.75V22.375ZM12.25 20.875V19.375H10.75V12.25H12.25V10.75H19.375V12.25H20.875V19.375H19.375V20.875H12.25ZM17.125 28.75H15.625V27.25H17.125V28.75ZM28.75 28.75H27.25V27.25H28.75V28.75ZM27.25 14.875H28.75V16.375H27.25V14.875ZM27.25 25.75H25.75V27.25H18.625V25.75H17.125V22.375H19.375V23.875H23.875V19.375H22.375V16.375H25.75V17.875H27.25V25.75Z" fill="white"/>
</svg>
