<svg width="40" height="40" viewBox="0 0 40 40" fill="none" xmlns="http://www.w3.org/2000/svg">
<path d="M17.9019 38.4375C17.9019 39.3005 17.2021 40 16.3391 40H1.5625C0.699461 40 0 39.3005 0 38.4375V1.5625C0 0.699463 0.699461 0 1.5625 0H16.3394C17.2021 0 17.9019 0.699463 17.9019 1.5625C17.9019 2.42554 17.2024 3.125 16.3394 3.125H3.12499V36.875H16.3391C17.2021 36.875 17.9019 37.5745 17.9019 38.4375ZM39.5431 18.895L30.7043 10.0562C30.0939 9.44611 29.1048 9.44611 28.4945 10.0562C27.8844 10.6665 27.8844 11.6556 28.4945 12.2659L34.666 18.4375H7.50029C6.63725 18.4375 5.93779 19.137 5.93779 20C5.93779 20.863 6.63725 21.5625 7.50029 21.5625H34.666L28.4945 27.7338C27.8844 28.3441 27.8844 29.3335 28.4945 29.9435C29.1048 30.5539 30.0942 30.5536 30.7043 29.9435L39.5434 21.1047C39.753 20.8957 39.9102 20.6119 39.9709 20.3052C40.0683 19.8135 39.9202 19.2719 39.5431 18.895Z" fill="white"/>
</svg>
