<svg width="512" height="512" viewBox="0 0 512 512" fill="none" xmlns="http://www.w3.org/2000/svg">
<path d="M374.804 75.716V317.781C374.804 344.496 322.206 402.028 257.323 402.028C192.44 402.028 139.842 344.496 139.842 317.781V75.716H374.804Z" fill="#E1E1E1"/>
<path d="M323.295 75.716V317.781C323.295 340.853 284.062 386.903 231.569 399.036C239.858 400.952 248.475 402.028 257.324 402.028C322.207 402.028 374.805 344.496 374.805 317.781V75.716H323.295Z" fill="#CACACA"/>
<path d="M257.323 124.088C322.206 124.088 374.804 102.431 374.804 75.716C374.804 49.0009 322.206 27.344 257.323 27.344C192.44 27.344 139.842 49.0009 139.842 75.716C139.842 102.431 192.44 124.088 257.323 124.088Z" fill="white"/>
<path d="M373.534 178.903L235.067 235.941L373.534 292.98L512 235.941L373.534 178.903Z" fill="white"/>
<path d="M373.534 292.799V467.24L512 410.201V235.941L373.534 292.799Z" fill="#E1E1E1"/>
<path d="M460.491 257.092V431.419L512 410.201V235.941L460.491 257.092Z" fill="#CACACA"/>
<path d="M235.067 235.941L373.534 292.799V467.24L235.067 410.201V235.941Z" fill="#CACACA"/>
<path d="M139.842 484.656V262.79L0 428.532L139.842 484.656Z" fill="white"/>
<path d="M139.842 484.656V262.79L279.685 428.532L139.842 484.656Z" fill="#E1E1E1"/>
<path d="M248.902 440.886L279.685 428.532L139.842 262.79L248.902 440.886Z" fill="#CACACA"/>
</svg>
