<svg width="38" height="38" viewBox="0 0 38 38" fill="none" xmlns="http://www.w3.org/2000/svg">
<g clip-path="url(#clip0)">
<path d="M34.5312 32.3789L24.3867 22.2344C25.9609 20.1992 26.8125 17.7109 26.8125 15.0938C26.8125 11.9609 25.5898 9.02344 23.3789 6.80859C21.168 4.59375 18.2227 3.375 15.0938 3.375C11.9648 3.375 9.01953 4.59766 6.80859 6.80859C4.59375 9.01953 3.375 11.9609 3.375 15.0938C3.375 18.2227 4.59766 21.168 6.80859 23.3789C9.01953 25.5937 11.9609 26.8125 15.0938 26.8125C17.7109 26.8125 20.1953 25.9609 22.2305 24.3906L32.375 34.5312C32.4047 34.561 32.4401 34.5846 32.4789 34.6007C32.5178 34.6168 32.5595 34.6251 32.6016 34.6251C32.6436 34.6251 32.6853 34.6168 32.7242 34.6007C32.7631 34.5846 32.7984 34.561 32.8281 34.5312L34.5312 32.832C34.561 32.8023 34.5846 32.767 34.6007 32.7281C34.6168 32.6892 34.6251 32.6475 34.6251 32.6055C34.6251 32.5634 34.6168 32.5217 34.6007 32.4828C34.5846 32.444 34.561 32.4087 34.5312 32.3789V32.3789ZM21.2813 21.2813C19.625 22.9336 17.4297 23.8438 15.0938 23.8438C12.7578 23.8438 10.5625 22.9336 8.90625 21.2813C7.25391 19.625 6.34375 17.4297 6.34375 15.0938C6.34375 12.7578 7.25391 10.5586 8.90625 8.90625C10.5625 7.25391 12.7578 6.34375 15.0938 6.34375C17.4297 6.34375 19.6289 7.25 21.2813 8.90625C22.9336 10.5625 23.8438 12.7578 23.8438 15.0938C23.8438 17.4297 22.9336 19.6289 21.2813 21.2813Z" fill="#75C6CE"/>
</g>
<defs>
<clipPath id="clip0">
<rect width="38" height="38" fill="white"/>
</clipPath>
</defs>
</svg>
