<svg width="38" height="38" viewBox="0 0 38 38" fill="none" xmlns="http://www.w3.org/2000/svg">
<mask id="path-1-inside-1" fill="white">
<path d="M27.4307 24.378C28.4004 22.8578 28.9411 21.1038 28.9955 19.3015C29.0498 17.4992 28.6159 15.7157 27.7395 14.1399C26.8632 12.5641 25.5771 11.2545 24.0174 10.3498C22.4576 9.44511 20.6823 8.97897 18.8793 9.00073C17.0764 9.02249 15.3128 9.53133 13.7754 10.4734C12.2379 11.4155 10.9838 12.7557 10.1457 14.3522C9.30768 15.9487 8.91689 17.7421 9.01473 19.5426C9.11257 21.3431 9.69539 23.0836 10.7015 24.5799L11.9477 23.7419C11.0927 22.4703 10.5974 20.9912 10.5143 19.4611C10.4311 17.931 10.7632 16.407 11.4754 15.0502C12.1876 13.6934 13.2534 12.5545 14.56 11.7539C15.8665 10.9533 17.3652 10.5209 18.8975 10.5024C20.4297 10.4839 21.9384 10.88 23.2639 11.6488C24.5894 12.4177 25.6823 13.5306 26.4271 14.8698C27.1718 16.2089 27.5406 17.7246 27.4944 19.2562C27.4482 20.7878 26.9887 22.2785 26.1646 23.5704L27.4307 24.378Z"/>
</mask>
<path d="M27.4307 24.378C28.4004 22.8578 28.9411 21.1038 28.9955 19.3015C29.0498 17.4992 28.6159 15.7157 27.7395 14.1399C26.8632 12.5641 25.5771 11.2545 24.0174 10.3498C22.4576 9.44511 20.6823 8.97897 18.8793 9.00073C17.0764 9.02249 15.3128 9.53133 13.7754 10.4734C12.2379 11.4155 10.9838 12.7557 10.1457 14.3522C9.30768 15.9487 8.91689 17.7421 9.01473 19.5426C9.11257 21.3431 9.69539 23.0836 10.7015 24.5799L11.9477 23.7419C11.0927 22.4703 10.5974 20.9912 10.5143 19.4611C10.4311 17.931 10.7632 16.407 11.4754 15.0502C12.1876 13.6934 13.2534 12.5545 14.56 11.7539C15.8665 10.9533 17.3652 10.5209 18.8975 10.5024C20.4297 10.4839 21.9384 10.88 23.2639 11.6488C24.5894 12.4177 25.6823 13.5306 26.4271 14.8698C27.1718 16.2089 27.5406 17.7246 27.4944 19.2562C27.4482 20.7878 26.9887 22.2785 26.1646 23.5704L27.4307 24.378Z" stroke="white" stroke-width="3" mask="url(#path-1-inside-1)"/>
</svg>
