<svg width="38" height="38" viewBox="0 0 38 38" fill="none" xmlns="http://www.w3.org/2000/svg">
<mask id="path-1-inside-1" fill="white">
<path d="M28.6593 24.5882C29.0563 23.1066 29.1071 21.5535 28.8079 20.0491C28.5086 18.5447 27.8673 17.1293 26.9335 15.9124C25.9998 14.6955 24.7986 13.7097 23.4229 13.0313C22.0472 12.3529 20.5339 12 19 12C17.4661 12 15.9528 12.3529 14.5771 13.0313C13.2014 13.7097 12.0002 14.6955 11.0665 15.9124C10.1327 17.1293 9.49139 18.5447 9.19215 20.0491C8.8929 21.5535 8.94375 23.1066 9.34074 24.5882L10.8771 24.1765C10.5432 22.9306 10.5005 21.6245 10.7521 20.3594C11.0038 19.0943 11.5431 17.904 12.3283 16.8807C13.1136 15.8573 14.1237 15.0283 15.2806 14.4578C16.4375 13.8873 17.7101 13.5906 19 13.5906C20.2899 13.5906 21.5625 13.8873 22.7194 14.4578C23.8763 15.0283 24.8864 15.8573 25.6717 16.8807C26.4569 17.904 26.9962 19.0943 27.2479 20.3594C27.4995 21.6245 27.4568 22.9306 27.1229 24.1765L28.6593 24.5882Z"/>
</mask>
<path d="M28.6593 24.5882C29.0563 23.1066 29.1071 21.5535 28.8079 20.0491C28.5086 18.5447 27.8673 17.1293 26.9335 15.9124C25.9998 14.6955 24.7986 13.7097 23.4229 13.0313C22.0472 12.3529 20.5339 12 19 12C17.4661 12 15.9528 12.3529 14.5771 13.0313C13.2014 13.7097 12.0002 14.6955 11.0665 15.9124C10.1327 17.1293 9.49139 18.5447 9.19215 20.0491C8.8929 21.5535 8.94375 23.1066 9.34074 24.5882L10.8771 24.1765C10.5432 22.9306 10.5005 21.6245 10.7521 20.3594C11.0038 19.0943 11.5431 17.904 12.3283 16.8807C13.1136 15.8573 14.1237 15.0283 15.2806 14.4578C16.4375 13.8873 17.7101 13.5906 19 13.5906C20.2899 13.5906 21.5625 13.8873 22.7194 14.4578C23.8763 15.0283 24.8864 15.8573 25.6717 16.8807C26.4569 17.904 26.9962 19.0943 27.2479 20.3594C27.4995 21.6245 27.4568 22.9306 27.1229 24.1765L28.6593 24.5882Z" stroke="white" stroke-width="3" mask="url(#path-1-inside-1)"/>
</svg>
