<svg width="38" height="38" viewBox="0 0 38 38" fill="none" xmlns="http://www.w3.org/2000/svg">
<path d="M16.5 12.75V14.625H12.6325C12.3725 13.9025 11.6831 13.375 10.875 13.375C9.84688 13.375 9 14.2219 9 15.25C9 16.2781 9.84688 17.125 10.875 17.125C11.6831 17.125 12.3719 16.5975 12.6331 15.875H14.0781C13.8219 16.1187 13.5994 16.385 13.3944 16.6756C12.6719 17.6988 12.2469 18.9606 12.1444 20.25H10.25V25.25H15.25V20.25H13.4137C13.5169 19.205 13.8581 18.1794 14.41 17.3981C14.9475 16.6369 15.6381 16.1044 16.5 15.9337V17.75H21.5V15.9337C22.3619 16.1044 23.0525 16.6369 23.59 17.3987C24.1419 18.18 24.4838 19.205 24.5856 20.25H22.75V25.25H27.75V20.25H25.8556C25.7531 18.9606 25.3281 17.6988 24.6056 16.6756C24.4045 16.387 24.1755 16.1188 23.9219 15.875H25.3675C25.6281 16.5975 26.3169 17.125 27.125 17.125C28.1531 17.125 29 16.2781 29 15.25C29 14.2219 28.1531 13.375 27.125 13.375C26.3169 13.375 25.6281 13.9025 25.3669 14.625H21.5V12.75H16.5ZM17.75 14H20.25V16.5H17.75V14ZM10.875 14.625C11.2269 14.625 11.5 14.8988 11.5 15.25C11.5 15.6019 11.2262 15.875 10.875 15.875C10.5231 15.875 10.25 15.6012 10.25 15.25C10.25 14.8981 10.5238 14.625 10.875 14.625ZM27.125 14.625C27.4769 14.625 27.75 14.8988 27.75 15.25C27.75 15.6019 27.4762 15.875 27.125 15.875C26.7731 15.875 26.5 15.6012 26.5 15.25C26.5 14.8981 26.7738 14.625 27.125 14.625ZM11.5 21.5H14V24H11.5V21.5ZM24 21.5H26.5V24H24V21.5Z" fill="white"/>
</svg>
