<svg width="38" height="38" viewBox="0 0 38 38" fill="none" xmlns="http://www.w3.org/2000/svg">
<path d="M27.8175 5.61951V23.5853C27.8175 25.568 23.9137 29.838 19.0982 29.838C14.2827 29.838 10.3789 25.568 10.3789 23.5853V5.61951H27.8175Z" fill="#E1E1E1"/>
<path d="M23.9946 5.61951V23.5853C23.9946 25.2976 21.0827 28.7154 17.1868 29.6159C17.802 29.7581 18.4415 29.838 19.0983 29.838C23.9138 29.838 27.8176 25.568 27.8176 23.5853V5.61951H23.9946Z" fill="#CACACA"/>
<path d="M19.0982 9.20964C23.9137 9.20964 27.8175 7.60229 27.8175 5.61953C27.8175 3.63677 23.9137 2.02942 19.0982 2.02942C14.2827 2.02942 10.3789 3.63677 10.3789 5.61953C10.3789 7.60229 14.2827 9.20964 19.0982 9.20964Z" fill="white"/>
<path d="M27.7233 13.2779L17.4464 17.5112L27.7233 21.7445L38 17.5112L27.7233 13.2779Z" fill="white"/>
<path d="M27.7233 21.7311V34.6779L38 30.4445V17.5112L27.7233 21.7311Z" fill="#E1E1E1"/>
<path d="M34.1771 19.081V32.0193L38.0001 30.4445V17.5112L34.1771 19.081Z" fill="#CACACA"/>
<path d="M17.4464 17.5112L27.7233 21.7311V34.6779L17.4464 30.4445V17.5112Z" fill="#CACACA"/>
<path d="M10.3789 35.9705V19.5039L0 31.8051L10.3789 35.9705Z" fill="white"/>
<path d="M10.3789 35.9705V19.5039L20.7579 31.8051L10.3789 35.9705Z" fill="#E1E1E1"/>
<path d="M18.4732 32.722L20.7579 31.8051L10.3789 19.5039L18.4732 32.722Z" fill="#CACACA"/>
</svg>
