<svg width="38" height="38" viewBox="0 0 38 38" fill="none" xmlns="http://www.w3.org/2000/svg">
<path d="M10.6666 10.6666V15.6666H12.5666L13.6416 22.3333H12.3333V27.3333H17.3333V25.7166L21.5 25.7083V27.3333H26.5V22.3333H24.975L25.6666 16.5H27.3333V11.5H22.3333V14.4416L21.3333 15.6666H16.9916L15.6666 13.85V10.6666H10.6666ZM12.3333 12.3333H14V14H12.3333V12.3333ZM24 13.1666H25.6666V14.8333H24V13.1666ZM14.2583 15.6666H14.925L16.5 17.825V20.6666H21.5V18.0916L22.8083 16.5H24L23.3 22.3333H21.5V24.05H17.3333V22.3333H15.3333L14.2583 15.6666ZM18.1666 17.3333H19.8333V19H18.1666V17.3333ZM14 24H15.6666V25.6666H14V24ZM23.1666 24H24.8333V25.6666H23.1666" fill="white"/>
</svg>
